<svg id="地板" xmlns="http://www.w3.org/2000/svg" width="1068" height="814" viewBox="0 0 1068 814">
  <metadata><?xpacket begin="﻿" id="W5M0MpCehiHzreSzNTczkc9d"?>
<x:xmpmeta xmlns:x="adobe:ns:meta/" x:xmptk="Adobe XMP Core 5.6-c142 79.160924, 2017/07/13-01:06:39        ">
   <rdf:RDF xmlns:rdf="http://www.w3.org/1999/02/22-rdf-syntax-ns#">
      <rdf:Description rdf:about=""/>
   </rdf:RDF>
</x:xmpmeta>
                      
<?xpacket end="w"?></metadata>
<defs>
    <style>
      .cls-1, .cls-2 {
        fill: #d2e5f7;
      }

      .cls-1, .cls-3, .cls-4 {
        fill-rule: evenodd;
      }

      .cls-3 {
        fill: #9dbddb;
      }

      .cls-4 {
        fill: #4b76a3;
      }
    </style>
  </defs>
  <path id="矩形_4" data-name="矩形 4" class="cls-1" d="M26.844,27.25H1042.41V783.625H26.844V27.25ZM997.75,778.687h44.66v4.938H997.75v-4.938Z"/>
  <rect id="矩形_7" data-name="矩形 7" class="cls-2" x="959.313" y="781.625" width="32.875" height="10.063"/>
  <path id="矩形_3" data-name="矩形 3" class="cls-1" d="M217.187,136.969h71.282V314.906H217.187V136.969ZM26.844,314.906H406.906V529.437H26.844V314.906Zm380.062,14.906H700.781V529.437H406.906V329.812ZM26.844,113.406H217.187v201.5H26.844v-201.5Z"/>
  <path id="横线" class="cls-3" d="M26.844,120.875H217.187v1.219H26.844v-1.219Zm0,11.156H217.187v1.219H26.844v-1.219Zm0,11.156H288.469v1.219H26.844v-1.219Zm0,11.157H288.469v1.25H26.844v-1.25Zm0,11.156H288.469v1.25H26.844V165.5Zm0,11.156H288.469v1.25H26.844v-1.25Zm0,11.156H288.469v1.25H26.844v-1.25Zm0,11.157H288.469v1.25H26.844v-1.25Zm0,11.156H288.469v1.25H26.844v-1.25Zm0,11.187H288.469v1.219H26.844v-1.219Zm0,11.157H288.469v1.218H26.844v-1.218Zm0,11.156H288.469v1.25H26.844v-1.25Zm0,11.156H288.469v1.25H26.844v-1.25Zm0,11.156H288.469v1.25H26.844v-1.25Zm0,11.157H288.469v1.25H26.844v-1.25Zm0,11.156H288.469v1.25H26.844v-1.25Zm0,11.156H288.469v1.25H26.844v-1.25Zm0,11.188H288.469v1.218H26.844v-1.218Zm0,11.156H406.906v1.219H26.844V321.75Zm0,11.156H700.781v1.219H26.844v-1.219Zm0,11.156H700.781v1.25H26.844v-1.25Zm0,11.157H700.781v1.25H26.844v-1.25Zm0,11.156H700.781v1.25H26.844v-1.25Zm0,11.156H700.781v1.25H26.844v-1.25Zm0,11.156H700.781v1.25H26.844v-1.25Zm0,11.188H700.781v1.219H26.844v-1.219Zm0,11.156H700.781v1.219H26.844v-1.219Zm0,11.156H700.781v1.219H26.844v-1.219Zm0,11.157H700.781v1.25H26.844v-1.25Zm0,11.156H700.781v1.25H26.844V444.5Zm0,11.156H700.781v1.25H26.844v-1.25Zm0,11.156H700.781v1.25H26.844v-1.25Zm0,11.157H700.781v1.25H26.844v-1.25Zm0,11.156H700.781v1.25H26.844v-1.25Zm0,11.187H700.781v1.219H26.844v-1.219Zm0,11.157H700.781v1.218H26.844v-1.218Zm0,11.156H700.781v1.25H26.844v-1.25Z"/>
  <path id="竖线" class="cls-3" d="M279.812,136.969h1.219V529.437h-1.219V136.969Zm11.157,177.937h1.218V529.437h-1.218V314.906Zm-33.5-177.937h1.25V529.437h-1.25V136.969Zm11.156,0h1.25V529.437h-1.25V136.969Zm-33.469,0h1.25V529.437h-1.25V136.969Zm11.156,0h1.25V529.437h-1.25V136.969Zm-33.468-23.563h1.25V529.437h-1.25V113.406ZM224,136.969h1.25V529.437H224V136.969Zm78.125,177.937h1.25V529.437h-1.25V314.906Zm11.156,0h1.25V529.437h-1.25V314.906Zm11.156,0h1.25V529.437h-1.25V314.906Zm11.157,0h1.25V529.437h-1.25V314.906Zm11.156,0H348V529.437h-1.25V314.906Zm11.156,0h1.25V529.437h-1.25V314.906Zm11.188,0h1.218V529.437h-1.218V314.906Zm11.156,0h1.219V529.437H380.25V314.906Zm11.156,0h1.219V529.437h-1.219V314.906Zm11.156,0h1.25V529.437h-1.25V314.906Zm11.157,14.906h1.25V529.437h-1.25V329.812Zm0-.012h1.24m9.915,0.012h1.25V529.437h-1.25V329.812Zm0-.012h1.24m9.911,0.012h1.25V529.437h-1.25V329.812Zm0.009-.012h1.24m9.907,0.012h1.25V529.437h-1.25V329.812Zm0.013-.012h1.24m9.935,0.012h1.219V529.437h-1.219V329.812Zm-0.015-.012h1.24m9.931,0.012h1.219V529.437h-1.219V329.812Zm-0.011-.012h1.24m9.927,0.012h1.219V529.437h-1.219V329.812Zm-0.007-.012h1.24m9.924,0.012h1.25V529.437h-1.25V329.812Zm0-.012h1.24m9.92,0.012h1.25V529.437H503V329.812Zm0-.012h1.24m9.916,0.012h1.25V529.437h-1.25V329.812Zm0-.012h1.24m9.912,0.012h1.25V529.437h-1.25V329.812Zm0.008-.012h1.24m9.909,0.012h1.25V529.437h-1.25V329.812Zm0.011-.012h1.24m9.9,0.012h1.25V529.437h-1.25V329.812Zm0.015-.012h1.24m9.932,0.012h1.219V529.437h-1.219V329.812ZM558.8,329.8h1.24m9.929,0.012h1.218V529.437h-1.218V329.812Zm-0.009-.012h1.24m9.925,0.012h1.25V529.437h-1.25V329.812Zm0-.012h1.24m9.921,0.012h1.25V529.437h-1.25V329.812Zm0-.012h1.24m9.917,0.012h1.25V529.437h-1.25V329.812Zm0-.012h1.24m9.914,0.012h1.25V529.437h-1.25V329.812Zm0.006-.012h1.24m9.91,0.012H627V529.437h-1.25V329.812Zm0.01-.012H627m9.906,0.012h1.25V529.437h-1.25V329.812Zm0.014-.012h1.24m9.934,0.012h1.218V529.437h-1.218V329.812Zm-0.014-.012h1.24m9.93,0.012h1.219V529.437H659.25V329.812Zm-0.01-.012h1.24m9.926,0.012h1.219V529.437h-1.219V329.812ZM670.4,329.8h1.24m9.922,0.012h1.25V529.437h-1.25V329.812Zm0-.012h1.24m9.919,0.012h1.25V529.437h-1.25V329.812Zm0-.012h1.24M190.531,113.406h1.219V529.437h-1.219V113.406Zm11.156,0h1.219V529.437h-1.219V113.406Zm-33.5,0h1.25V529.437h-1.25V113.406Zm11.188,0h1.219V529.437h-1.219V113.406Zm-33.5,0h1.25V529.437h-1.25V113.406Zm11.156,0h1.25V529.437h-1.25V113.406Zm-33.469,0h1.25V529.437h-1.25V113.406Zm11.157,0h1.25V529.437h-1.25V113.406Zm-33.469,0h1.219V529.437H101.25V113.406Zm11.156,0h1.219V529.437h-1.219V113.406Zm-33.5,0h1.25V529.437h-1.25V113.406Zm11.188,0h1.219V529.437H90.094V113.406Zm-33.5,0h1.25V529.437h-1.25V113.406Zm11.156,0H69V529.437H67.75V113.406Zm-33.469,0h1.25V529.437h-1.25V113.406Zm11.156,0h1.25V529.437h-1.25V113.406Z"/>
  <path id="竖线_拷贝_10" data-name="竖线 拷贝 10" class="cls-4" d="M18.781,19.813H540.812V27.25H18.781V19.813ZM288.469,308.094h125.25v6.812H288.469v-6.812Zm0-109.125H540.812v6.843H288.469v-6.843ZM534.62,19.8h513.6v7.44H534.62V19.8ZM406.906,323.594H1049.22v6.218H406.906v-6.218ZM18.781,529.437H1049.22v6.813H18.781v-6.813Zm211.406,0h34.125v6.813H230.187v-6.813ZM18.781,783.625H959.312v8.062H18.781v-8.062ZM56.594,109.094H220.531v4.312H56.594v-4.312Zm160.593,23.531h78.125v4.344H217.187v-4.344ZM18.781,27.25h8.063V791.687H18.781V27.25Zm80.594-7.437h5.594v92.594H99.375V19.813Zm111.594,0h5.593v92.594h-5.593V19.813Zm0,12.375h5.593V52.031h-5.593V32.188Zm63.875,52.719h13.625v3.719H274.844V84.906Zm-58.282,0h16.75v3.719h-16.75V84.906Zm0.625,24.188h4.344v27.875h-4.344V109.094Zm71.282-89.281h6.843V314.906h-6.843V19.813Zm0,193.438h6.843v19.844h-6.843V213.25ZM406.906,19.813h6.813v310h-6.813v-310Zm127.094,0h6.812v310H534v-310Zm0,193.438h6.812v19.844H534V213.25Zm0-169.875h6.812V63.188H534V43.375Zm508.41-23.562h6.81v310h-6.81v-310Zm0,303.782h6.81V536.25h-6.81V323.594Zm-4.97,207.843h6.81v248.25h-6.81V531.437Zm0,16.969h6.81V568.25h-6.81V548.406ZM992.187,773.094h45.253v5.593H992.187v-5.593Zm0,0h5.563v18.593h-5.563V773.094ZM952.5,529.437h6.812v262.25H952.5V529.437Zm-163.688,1h6.813v262.25h-6.813V530.437Zm0,16.375h6.813v19.813h-6.813V546.812Zm0,100.813h6.813v18.844h-6.813V647.625ZM209.75,529.437h6.812v262.25H209.75V529.437Zm0,17.375h6.812v19.813H209.75V546.812Zm70.062-17.375h6.813v82.469h-6.813V529.437ZM209.75,605.094h76.875v6.812H209.75v-6.812Zm20.437,0h34.125v6.812H230.187v-6.812ZM952.5,629.875h90.75v6.812H952.5v-6.812ZM700.781,323.594h6.813V535.25h-6.813V323.594Zm0,161.812h6.813v34.125h-6.813V485.406ZM825.406,323.594h6.813V534.25h-6.813V323.594Zm0,160.812h6.813v35.125h-6.813V484.406Z"/>
  <path id="形状_1_拷贝_10" data-name="形状 1 拷贝 10" class="cls-4" d="M216.56,28.48h23.56v6.2s-2.635,19.414-23.56,21.7V28.48Zm3.72,3.72H236.4s0.17,14.872-16.12,19.84V32.2Zm-3.718-.013h3.719V52.031h-3.719V32.188ZM28.7,125.2V101.64h6.2s19.414,2.635,21.7,23.56H28.7Zm3.72-3.72V105.36s14.872-.171,19.84,16.12H32.42Zm-0.014-.011H52.25v3.718H32.406v-3.718ZM229.58,84.9V61.34h6.2s18.174,2.635,20.46,23.56H229.58Zm3.72-3.72V65.06s13.632-.171,18.6,16.12H233.3Zm0.012,0.008h18.594v3.719H233.312V81.188ZM278.56,84.9V61.34h-6.2S254.186,63.975,251.9,84.9h26.66Zm-3.72-3.72V65.06s-13.632-.171-18.6,16.12h18.6Zm-18.59.008h18.594v3.719H256.25V81.188ZM295.3,209.52h23.56v6.2s-2.635,19.414-23.56,21.7v-27.9Zm3.72,3.72h16.12s0.17,14.872-16.12,19.84V213.24Zm-3.708.01h3.719v19.844h-3.719V213.25ZM209.74,543.08H186.18v6.2s2.635,19.414,23.56,21.7v-27.9Zm-3.72,3.72H189.9s-0.171,14.872,16.12,19.84V546.8Zm0.011,0.012h3.719v19.813h-3.719V546.812ZM707.6,482.32h17.98s1.5,17.666-17.98,21.7v-21.7Zm0,3.1h14.88a18.169,18.169,0,0,1-14.88,15.5v-15.5Zm0,37.2h17.98s1.5-17.666-17.98-21.7v21.7Zm0-3.1h14.88a18.169,18.169,0,0,0-14.88-15.5v15.5ZM267.1,611.58v17.98s-17.666,1.5-21.7-17.98h21.7Zm-3.1,0v14.88a18.169,18.169,0,0,1-15.5-14.88H264Zm-37.2,0v17.98s17.665,1.5,21.7-17.98H226.8Zm3.1,0v14.88a18.17,18.17,0,0,0,15.5-14.88H229.9Zm37.2-82.44V511.16s-17.666-1.5-21.7,17.98h21.7Zm-3.1,0V514.26a18.169,18.169,0,0,0-15.5,14.88H264Zm-37.2,0V511.16s17.665-1.5,21.7,17.98H226.8Zm3.1,0V514.26a18.17,18.17,0,0,1,15.5,14.88H229.9Zm602.32-46.82H850.2s1.5,17.666-17.98,21.7v-21.7Zm0,3.1H847.1a18.169,18.169,0,0,1-14.88,15.5v-15.5Zm0,37.2H850.2s1.5-17.666-17.98-21.7v21.7Zm0-3.1H847.1a18.169,18.169,0,0,0-14.88-15.5v15.5ZM534,39.64H510.44v6.2s2.635,19.414,23.56,21.7V39.64Zm-3.72,3.72H514.16s-0.171,14.872,16.12,19.84V43.36Zm0,0.015H534V63.188h-3.719V43.375ZM534,209.52H510.44v6.2s2.635,19.414,23.56,21.7v-27.9Zm-3.72,3.72H514.16s-0.171,14.872,16.12,19.84V213.24Zm0,0.01H534v19.844h-3.719V213.25ZM1037.44,543.7h-23.56v6.2s2.63,19.414,23.56,21.7V543.7Zm-3.72,3.72H1017.6s-0.17,14.872,16.12,19.84V547.42Zm0-.014h3.72V567.25h-3.72V547.406ZM795.64,543.08H819.2v6.2s-2.635,19.414-23.56,21.7v-27.9Zm3.72,3.72h16.12s0.17,14.872-16.12,19.84V546.8Zm-3.735.012h3.75v19.813h-3.75V546.812ZM795.64,642.9H819.2v6.2s-2.635,19.414-23.56,21.7V642.9Zm3.72,3.72h16.12s0.17,14.872-16.12,19.84V646.62Zm-3.735,0h3.75v19.844h-3.75V646.625Z"/>
</svg>
